OpenSim_Sub09_CSStiffKnee_RCS.mot
version=1
nRows=73
nColumns=11
inDegrees=no
endheader
time	Top_Thigh	Med_Thigh	Bot_Thigh	Top_Shank	2nd_Top_Shank	2nd_Bot_Shank	Bot_Shank	BNOx	BNOy	BNOZ
17.81000000	1896.61356181	1978.88159819	1705.82608342	1315.65009941	1473.44335530	1319.49154943	1321.36697992	333.32283213	-74.76950635	-95.66184647
17.82000000	1897.15870012	1979.79332609	1705.37569693	1315.01397261	1473.36241267	1318.71820291	1321.37082725	333.19872447	-74.55939714	-99.78686778
17.83000000	1898.19950506	1981.14927222	1704.96884401	1314.51627523	1473.35431603	1317.73968131	1321.21632541	332.89262660	-74.44734641	-98.97834647
17.84000000	1899.67393162	1983.07349295	1704.84988077	1314.17439310	1473.33008437	1316.67446608	1320.90242447	332.48796817	-74.44809935	-93.99121277
17.85000000	1901.51993479	1985.69004467	1705.26316330	1314.00571202	1473.20073671	1315.64103865	1320.42807445	332.06817884	-74.57640114	-85.58039689
17.86000000	1903.67544942	1989.12165809	1706.45136102	1314.02742259	1472.87787964	1314.75724657	1319.79238133	331.71628909	-74.84684014	-74.49880288
17.87000000	1906.07685063	1993.38849663	1708.52664345	1314.24161084	1472.31858173	1314.09189323	1319.00651332	331.48444560	-75.26187189	-61.34257014
17.88000000	1908.65786983	1998.33686502	1711.37997369	1314.62475957	1471.55697276	1313.63064878	1318.10208508	331.37244486	-75.80338591	-46.44211114
17.89000000	1911.35198230	2003.79622711	1714.88088762	1315.15087150	1470.63464708	1313.35113061	1317.11269179	331.37501244	-76.45127958	-30.10209861
17.90000000	1914.09266334	2009.59604676	1718.89892114	1315.79394937	1469.59319902	1313.23095615	1316.07192862	331.48687392	-77.18545030	-12.62720529
17.91000000	1916.81338824	2015.56578783	1723.30361012	1316.52799590	1468.47422292	1313.24774279	1315.01339077	331.70275486	-77.98579545	5.67789609
17.92000000	1919.44763229	2021.53491417	1727.96449045	1317.32701381	1467.31931313	1313.37910796	1313.97067341	332.01738085	-78.83221242	24.50853279
17.93000000	1921.92887080	2027.33288964	1732.75109801	1318.16500584	1466.17006397	1313.60266906	1312.97737174	332.42547745	-79.70459861	43.56003208
17.94000000	1924.19057904	2032.78917809	1737.53296869	1319.01597471	1465.06806980	1313.89604350	1312.06708093	332.92177024	-80.58285141	62.52772122
17.95000000	1926.16623232	2037.73324337	1742.17963837	1319.85392315	1464.05492494	1314.23684870	1311.27339618	333.50098479	-81.44686819	81.10692748
17.96000000	1927.78930593	2041.99454935	1746.56064293	1320.65285389	1463.17222374	1314.60270205	1310.62991265	334.15784667	-82.27654636	98.99297811
17.97000000	1928.99327516	2045.40255989	1750.54551827	1321.38676965	1462.46156053	1314.97122098	1310.17022555	334.88708146	-83.05178330	115.88120039
17.98000000	1929.71161531	2047.78673882	1754.00380026	1322.02967317	1461.96452966	1315.32002289	1309.92793005	335.68341472	-83.75247641	131.46692158
17.99000000	1929.87780167	2048.97655002	1756.80502479	1322.55556716	1461.72272547	1315.62672519	1309.93662133	336.54157204	-84.35852306	145.44546894
18	1929.42530954	2048.80145734	1758.81872775	1322.93845436	1461.77774228	1315.86894530	1310.22989459	337.45627898	-84.84982066	157.51216973
18.01000000	1928.28761420	2047.09092463	1759.91444501	1323.15233749	1462.17117446	1316.02430062	1310.84134500	338.42226112	-85.20626659	167.36235123
18.02000000	1926.39819095	2043.67441574	1759.96171247	1323.17121928	1462.94461632	1316.07040857	1311.80456775	339.43424403	-85.40775823	174.69134069
18.03000000	1923.69067818	2038.38169659	1758.83022613	1322.96914345	1464.13961133	1315.98489448	1313.15310049	340.48693805	-85.43420835	179.19466356
18.04000000	1920.31513415	2031.44334610	1756.60217397	1322.57455618	1465.73019050	1315.75591279	1314.84412305	341.55483395	-85.28591491	180.83082955
18.05000000	1917.06467938	2024.28090463	1753.99113492	1322.17755309	1467.48978074	1315.40290367	1316.60792848	342.55234280	-85.02374774	180.33977038
18.06000000	1914.85112221	2018.53574895	1751.82725108	1321.99805931	1469.15477027	1314.95109661	1318.13292583	343.38279281	-84.71976294	178.60576078
18.07000000	1914.31492619	2015.37950351	1750.71337012	1322.18038692	1470.52782776	1314.43243959	1319.19230279	343.98259452	-84.42934798	176.34076458
18.08000000	1915.29029075	2014.58798746	1750.57696508	1322.64417399	1471.60856510	1313.89884367	1319.81115524	344.38645814	-84.15836175	173.74474706
18.09000000	1917.46234945	2015.67895709	1751.22064268	1323.26751983	1472.43300597	1313.40591080	1320.06115299	344.64726795	-83.90350608	170.92301288
18.10000000	1920.51623589	2018.17016867	1752.44700963	1323.92852375	1473.03717403	1313.00924290	1320.01396586	344.81790826	-83.66148280	167.98086669
18.11000000	1924.13708365	2021.57937847	1754.05867264	1324.50528507	1473.45709295	1312.76444192	1319.74126369	344.95126337	-83.42899375	165.02361313
18.12000000	1928.01002631	2025.42434277	1755.85823840	1324.87590309	1473.72878640	1312.72710980	1319.31471629	345.10021757	-83.20274075	162.15655685
18.13000000	1931.82019747	2029.22281783	1757.64831362	1324.91847713	1473.88827804	1312.95284846	1318.80599347	345.31765517	-82.97942563	159.48500251
18.14000000	1935.25273070	2032.49255994	1759.23150501	1324.51110650	1473.97159155	1313.49725985	1318.28676507	345.65646046	-82.75575022	157.11425476
18.15000000	1937.99759014	2034.75939997	1760.41340195	1323.53583612	1474.01461119	1314.41395683	1317.82786911	346.16771685	-82.52844567	155.14746470
18.16000000	1939.93252798	2035.86306899	1761.11554521	1322.02809588	1474.04780199	1315.67922716	1317.46780749	346.83249785	-82.29538254	153.60406482
18.17000000	1941.17923965	2036.05106552	1761.41010051	1320.22256824	1474.09458915	1317.16891052	1317.20307636	347.54093168	-82.05591158	152.39473413
18.18000000	1941.87572375	2035.59813986	1761.37930010	1318.36725202	1474.17792742	1318.75213350	1317.02736452	348.17706852	-81.80948246	151.42288346
18.19000000	1942.15997886	2034.77904232	1761.10537621	1316.71014608	1474.32077153	1320.29802267	1316.93436082	348.62495855	-81.55554484	150.59192363
18.20000000	1942.17000360	2033.86852321	1760.67056110	1315.49924923	1474.54607624	1321.67570462	1316.91775407	348.76865197	-81.29354838	149.80526548
18.21000000	1942.04379653	2033.14133284	1760.15708701	1314.98256030	1474.87679627	1322.75430591	1316.97123309	348.49219896	-81.02294275	148.96631983
18.22000000	1941.91042968	2032.85093271	1759.64342876	1315.38039541	1475.33412699	1323.41474497	1317.08759485	347.70788557	-80.74346579	147.98684774
18.23000000	1941.80682054	2033.03100705	1759.16927103	1316.62728479	1475.92110068	1323.65967452	1317.25042903	346.61949428	-80.45783039	146.86481459
18.24000000	1941.71552034	2033.58558326	1758.75141441	1318.48916036	1476.63003436	1323.56356400	1317.43789353	345.60277474	-80.17050453	145.64904172
18.25000000	1941.61837766	2034.41701295	1758.40636368	1320.72977493	1477.45310657	1323.20181107	1317.62807605	345.03569929	-79.88597890	144.38900778
18.26000000	1941.49724107	2035.42764773	1758.15062365	1323.11288130	1478.38249583	1322.64981339	1317.79906426	345.29624027	-79.60874418	143.13419140
18.27000000	1941.33395916	2036.51983921	1758.00069914	1325.40223230	1479.41038069	1321.98296862	1317.92894588	346.76236999	-79.34329105	141.93407124
18.28000000	1941.11038048	2037.59593900	1757.97309492	1327.36158072	1480.52893966	1321.27667444	1317.99580857	349.81206078	-79.09411019	140.83812594
18.29000000	1940.81167613	2038.56303718	1758.08232531	1328.76619883	1481.72922902	1320.60303661	1317.97937275	354.75676677	-78.86544256	139.89261859
18.30000000	1940.47273171	2039.39912550	1758.31312065	1329.56372396	1482.98551241	1319.98490461	1317.88378885	360.91263272	-78.65779251	139.09569795
18.31000000	1940.16670319	2040.13677589	1758.62728355	1329.83448041	1484.25912653	1319.40721033	1317.73201363	366.82961225	-78.46878795	138.40847433
18.32000000	1939.96773096	2040.80996432	1758.98602685	1329.66220566	1485.51107554	1318.85391028	1317.54748762	371.03794990	-78.29598278	137.79110526
18.33000000	1939.94995545	2041.45266673	1759.35056340	1329.13063718	1486.70236361	1318.30896096	1317.35365132	372.06789018	-78.13693093	137.20374828
18.34000000	1940.18751704	2042.09885907	1759.68210601	1328.32351246	1487.79399489	1317.75631889	1317.17394525	368.44967765	-77.98918630	136.60656092
18.35000000	1940.75455616	2042.78251728	1759.94186754	1327.32456896	1488.74697354	1317.17994057	1317.03180994	358.71355681	-77.85030281	135.95970071
18.36000000	1941.71547329	2043.52817832	1760.09370913	1326.21505751	1489.52474042	1316.56676723	1316.94880926	341.55380977	-77.71777104	135.22614776
18.37000000	1943.03411785	2044.26293439	1760.12883222	1325.05055767	1490.11589170	1315.93455328	1316.92713336	317.35817930	-77.58842767	134.39802106
18.38000000	1944.61501953	2044.85639059	1760.05456753	1323.87150434	1490.52386387	1315.31923123	1316.95754295	287.51345910	-77.45872363	133.48463007
18.39000000	1946.36194128	2045.17740896	1759.87845426	1322.71813667	1490.75228524	1314.75696853	1317.03065099	253.41935544	-77.32510487	132.49550638
18.40000000	1948.17864610	2045.09485159	1759.60803158	1321.63069383	1490.80478409	1314.28393265	1317.13707046	216.47557461	-77.18401732	131.44018161
18.41000000	1949.96889695	2044.47758053	1759.25083871	1320.64941497	1490.68498873	1313.93629104	1317.26741434	178.08182287	-77.03190694	130.32818738
18.42000000	1951.63645682	2043.19445784	1758.81441481	1319.81453924	1490.39652745	1313.75021116	1317.41229559	139.63780651	-76.86521966	129.16905530
18.43000000	1953.08508868	2041.11434559	1758.30629910	1319.16630580	1489.94302855	1313.76186048	1317.56232720	102.54323180	-76.68040142	127.97231698
18.44000000	1954.21855550	2038.10610585	1757.73403076	1318.74495381	1489.32812033	1314.00740645	1317.70812213	68.19780503	-76.47389818	126.74750404
18.45000000	1954.94062026	2034.03860067	1757.10514898	1318.59072243	1488.55543109	1314.52301653	1317.84029335	38.00123247	-76.24215588	125.50414809
18.46000000	1955.15504595	2028.78069213	1756.42719295	1318.74385080	1487.62858912	1315.34485819	1317.94945385	13.35322040	-75.98162044	124.25178073
18.47000000	1954.76948005	2022.20979916	1755.70888405	1319.24311311	1486.55120377	1316.50709091	1318.02639516	-4.37465889	-75.68871483	122.99963425
18.48000000	1953.84258058	2014.53598974	1755.00490094	1320.07033251	1485.32614788	1317.96581467	1318.06885041	-14.90454165	-75.35896785	121.74530384
18.49000000	1952.62917362	2006.40145465	1754.42962243	1321.13335072	1483.95533750	1319.57572734	1318.08357011	-19.37933021	-74.98674678	120.47126774
18.50000000	1951.39719546	1998.47726415	1754.10141720	1322.33506519	1482.44062475	1321.18474993	1318.07790744	-19.03687912	-74.56634130	119.15899391
18.51000000	1950.41458241	1991.43448854	1754.13865393	1323.57837335	1480.78386176	1322.64080343	1318.05921555	-15.11504288	-74.09204106	117.78995030
18.52000000	1949.94927075	1985.94419809	1754.65970129	1324.76617263	1478.98690063	1323.79180885	1318.03484761	-8.85167605	-73.55813573	116.34560487
18.53000000	1950.26919679	1982.67746308	1755.78292795	1325.80136047	1477.05159348	1324.48568719	1318.01215678	-1.48463313	-72.95891498	114.80742555
